<?xml version="1.0" encoding="utf-8"?>
<svg version="1.1" xmlns:xlink="http://www.w3.org/1999/xlink" width="168px" height="37px" xmlns="http://www.w3.org/2000/svg">
  <g transform="matrix(1 0 0 1 -33 -65 )">
    <path d="M 96.76784363076922 18.452793106  C 96.76784363076922 8.11682183099997  103.97789649230768 0  114.82034178461537 0  C 125.3772926769231 0  132.8309983384615 7.847614936999963  132.8309983384615 18.446839084499945  C 132.8309983384615 29.052017234999973  125.3772926769231 36.8934655300001  114.82034178461537 36.8934655300001  C 104.07320215384615 36.8934655300001  96.76784363076922 29.380764454999973  96.76784363076922 18.452793106  Z M 44.651855815384614 21  L 68.3130180923077 21  C 69.16273883076923 21.43161212000008  69.54924443076924 20.839399370000102  69.54924443076924 19.81637064499995  L 69.54924443076924 18.105864937000096  C 69.54924443076924 17.262307468499944  69.51353113846153 15.964543105999951  69.44210473846155 15.168830467000038  C 69.00847458461536 10.377968383999995  67.26064061538463 6.51402010750005  64.32412744615385 3.905945403999925  C 61.51271612307694 1.3876063213499834  57.73789347692308 0.01796839080803352  53.057138769230775 0.01796839080803352  C 49.60648209230769 0.01796839080803352  45.246512307692335 1.220468391400044  42.03655015384617 3.8702212565000083  C 38.21735003076922 7.040313213499951  35.245123753846165 11.99278448850004  35.245123753846165 18.668094884999967  C 35.245123753846165 24.42223276499998  37.10876141538462 29.051910859999925  40.446361476923094 32.17989937000009  C 43.7097878769231 35.2545144550001  48.343206646153824 36.923554670000016  54.070633107692316 36.923554670000016  C 58.6890481846154 36.923554670000016  64.27066320000002 35.17689937000011  66.64844436923077 33.687330429999996  C 67.49245956923075 33.17315808000006  67.75999163076925 32.93967531499995  67.54909347692309 32.090163824999955  L 66.0478707692308 27.831548924999908  C 65.8815614769231 27.15002594500004  65.10305575384616 26.96438788000007  64.4847312 27.28122701999994  C 63.432565107692305 27.795824684999918  62.64201415384617 28.202399369999927  61.58393113846154 28.597066159999947  C 59.52144055384612 29.368962564999947  57.36660295384615 29.89504317999996  55.33665581538461 29.89504317999996  C 51.054029353846126 29.89504317999996  48.60186332307694 28.72252594500008  46.741606707692306 26.545692549999977  C 45.558421846153855 25.170100629999904  44.86613501538459 23.44130744999999  44.651855815384614 21  Z M 133.97823766153846 35.17689937000011  C 135.87146030769227 29.94905467000005  139.64311310769233 23.44130744999999  145.05229052307695 18.542422349999946  C 140.7962904 13.3864511490001  136.7216036307692 7.100066086000089  135.11662246153847 1.806727010750069  C 134.8700112 1.0110143680499846  135.2922300923077 0.5325660915499043  135.886464 0.5325660915499043  L 143.36109046153848 0.5325660915499043  C 144.1784791384615 0.5325660915499043  144.60048664615385 0.8674798851000446  144.9988262769231 1.806727010750069  C 146.84154332307693 6.119140807999917  149.35309052307693 10.228479892500076  151.26998104615384 12.519077594499942  C 152.47958104615387 11.245129317999954  155.30007913846154 7.740123554500007  158.4240337846154 1.806727010750069  C 158.95592824615383 0.7896522980000669  159.43435846153847 0.5325660915499043  160.1327734153846 0.5325660915499043  L 165.93437353846156 0.5325660915499043  C 166.4633093538462 0.5325660915499043  167.08755083076926 0.7896522980000669  166.74859236923075 1.806727010750069  C 164.44223759999997 8.691066085999905  159.1757017846154 14.738227019999988  156.26306787692312 17.860686786499908  C 159.43435846153847 20.887031690000022  165.07218479999997 28.053123610000085  167.72045649230768 35.087163824999955  C 167.95544510769233 35.72105467000006  167.83921883076923 36.44489362500004  166.51656221538465 36.44489362500004  L 159.57404141538458 36.44489362500004  C 158.8608337846154 36.44489362500004  158.28688670769228 36.37897405500002  157.80845649230773 35.17689937000011  C 156.08788283076922 30.864060415000022  153.39798110769232 26.330284470000027  150.32474326153846 23.35135915499996  C 146.96009427692303 26.94035915500006  144.4105092923077 31.354629354999993  142.69247150769232 35.17689937000011  C 142.2647584615385 36.11593384000009  141.84845649230766 36.44489362500004  140.93005643076927 36.44489362500004  L 134.56084892307692 36.44489362500004  C 134.12975464615388 36.44489362500004  133.6961244923077 35.948370645000004  133.97823766153846 35.17689937000011  Z M 84 34.61481830999994  C 84.44532886153848 35.786910414999916  83.93435538461536 36.44482980000009  82.68587243076921 36.44482980000009  L 77.2766950153846 36.44482980000009  C 76.12351753846156 36.44482980000009  75.62416670769232 35.87069191999999  76 34.61481830999994  L 76 17.11892183099994  C 75.52886104615384 10.748755170499994  75.89486861538464 7.764088509999908  77.94848363076925 5.102214937000104  C 80.62338184615385 1.6331459766499052  84.80203846153846 0.047887356374957335  91.63763076923075 0.047887356374957335  C 93.23373655384613 0.047887356374957335  95.21317809230771 0.24543333394993852  96.45236289230768 0.5325022980000483  C 97.25495907692306 0.7240942531499854  97.38576664615383 1.3637264362499706  97.23129119999999 2.195375870999919  L 96.42277809230767 6.202858617499942  C 96.24463458461538 6.950513788000029  96.03056676923079 7.1659218309999515  95.44816670769232 7.1659218309999515  C 95.35898935384614 7.1659218309999515  95.18380449230769 7.159967809499898  94.9667780307692 7.129985063000044  C 94.4019175384615 7.052370107499939  92.79080824615384 6.878640233499988  92.12535913846155 6.878640233499988  C 88.72520824615385 6.878640233499988  87.11431015384613 7.733893106000034  85.89879304615387 9.014220682000087  C 84.48695907692307 10.539301148999915  84.44532886153848 12.782691956999992  84 16.795916086000062  L 84 34.61481830999994  Z M 1.9963598953845927 0.5325660915499043  L 9.47140894153848 0.5325660915499043  C 10.285416498461526 0.5325660915499043  10.701929704615395 0.8674798851000446  11.114850461538463 1.806727010750069  C 12.94277497846154 6.119140807999917  15.462986307692324 10.228479892500076  17.376918387692303 12.519077594499942  C 18.583559815384607 11.245129317999954  21.40131083076921 7.740123554500007  24.536888123076903 1.806727010750069  C 25.062865476923086 0.7896522980000669  25.53242030769231 0.5325660915499043  26.239710830769216 0.5325660915499043  L 32.053356184615375 0.5325660915499043  C 32.57045796923075 0.5325660915499043  33.19448824615385 0.7896522980000669  32.85574098461538 1.806727010750069  C 30.537340984615394 8.691066085999905  25.276722092307686 14.738227019999988  22.364299569230788 17.860686786499908  C 25.544254153846133 20.893198295000037  31.179333415384637 28.058652334999902  33.842397599999984 35.087163824999955  C 34.06829944615384 35.72105467000006  33.949325907692284 36.44489362500004  32.61504664615383 36.44489362500004  L 25.666397538461556 36.44489362500004  C 24.949808861538465 36.44489362500004  24.40608055384615 36.37897405500002  23.915816492307666 35.17689937000011  C 22.197778707692333 30.864060415000022  19.499212799999984 26.330284470000027  16.43189196923079 23.357525944999914  C 13.070624030769244 26.94035915500006  10.51744668923075 31.36058339500006  8.790533464615377 35.17689937000011  C 8.377612726153862 36.11593384000009  7.9615221599999755 36.44489362500004  7.039952344615375 36.44489362500004  L 0.6737032855384699 36.44489362500004  C 0.24577875692309065 36.44489362500004  -0.18806275200002068 35.948370645000004  0.08538630387691298 35.17689937000011  C 1.9813561107692363 29.94905467000005  5.756178756923052 23.44130744999999  11.147393852307687 18.542422349999946  C 6.9271070584615275 13.3864511490001  2.8314995076923077 7.100066086000089  1.2267297009230926 1.806727010750069  C 0.9828655495384562 1.0110143680499846  1.4107900781538356 0.5325660915499043  1.9963598953845927 0.5325660915499043  Z M 106.07652295384611 18.446839084499945  C 106.07652295384611 24.649655114999966  108.5132625230769 30.146494254999958  114.83788135384619 30.146494254999958  C 121.15087753846153 30.146494254999958  123.52253039999998 24.649655114999966  123.52253039999998 18.446839084499945  C 123.52253039999998 12.2442356375001  121.15087753846153 6.75313793549999  114.83788135384619 6.75313793549999  C 108.5132625230769 6.75313793549999  106.07652295384611 12.2442356375001  106.07652295384611 18.446839084499945  Z M 44.642980246153854 15  C 44.8183764923077 13.828962639000048  45.14254246153847 12.710669533000054  45.674436923076925 11.628100574499978  C 47.13952375384618 8.673204021499954  49.903810523076935 6.7889683839998956  53.357214276923095 6.7889683839998956  C 58.085727507692305 6.7889683839998956  60.96898781538462 10.019025870999997  60.96898781538462 14.81010057450003  L 60.96898781538462 15  L 44.642980246153854 15  Z " fill-rule="nonzero" fill="#d92231" stroke="none" transform="matrix(1 0 0 1 33 65 )" />
  </g>
</svg>