<?xml version="1.0" encoding="UTF-8"?>
<svg viewBox="0 0 48 48" version="1.1" xmlns="http://www.w3.org/2000/svg" xmlns:xlink="http://www.w3.org/1999/xlink">
    <title>2tone / view_disabled_2t_48</title>
    <g id="2tone-/-view_disabled" stroke="none" stroke-width="1" fill="none" fill-rule="evenodd">
        <g id="view_disabled">
            <rect id="Bounding-Box" x="0" y="0" width="48" height="48"></rect>
            <g id="Fill" opacity="0.2" transform="translate(2, 5.9688)" fill="#000000">
                <path d="M6.09122297,-1.4077628e-13 L40.0323485,33.9411255 L37.9110281,36.0624458 L3.96990262,2.12132034 L6.09122297,-1.4077628e-13 Z M7.63000002,10.0312229 L14.14,16.5412229 C13.6962283,18.882199 14.3190205,21.2991524 15.8388443,23.1341559 C17.3586681,24.9691594 19.617333,26.0312229 22,26.0312229 C22.4999502,26.0312229 22.998799,25.9843449 23.49,25.8912229 L27.8500001,30.2512229 C25.9432392,30.7696005 23.9759686,31.0319032 22,31.0312229 C8,31.0312229 0,18.0312229 0,18.0312229 C2.06437632,14.9456391 4.64555532,12.2392915 7.63000002,10.0312229 Z M22,5.03122289 C36.0000001,5.03122289 44.0000001,18.0312229 44.0000001,18.0312229 C41.9354673,21.1166813 39.3543121,23.8230039 36.3700001,26.0312229 L29.8600001,19.5212229 C30.3037718,17.1802469 29.6809796,14.7632934 28.1611558,12.9282899 C26.641332,11.0932864 24.3826671,10.0312229 22,10.0312229 C21.4997358,10.0345248 21.0008841,10.0847448 20.51,10.1812229 L16.15,5.82122289 C18.0563291,5.29958482 20.0235918,5.03392027 22,5.03122289 Z" id="Fill-Icon"></path>
            </g>
            <path d="M8.09122287,5.96877703 L42.0323484,39.9099025 L39.911028,42.0312229 L5.96990253,8.09009737 L8.09122287,5.96877703 Z M9.64999997,16 L11.65,18 C9.3254926,19.6300766 7.31056789,21.6619334 5.69999996,24 L5.71274033,24.019889 C6.03111819,24.512734 12.3116883,34 24,34 C25.1254428,34.000613 26.2490964,33.9103195 27.36,33.73 L29.85,36.22 C27.9432627,36.7384941 25.9759764,37.000799 24,37 C9.99999995,37 1.99999995,24 1.99999995,24 C4.07036177,20.9127585 6.65840293,18.2063103 9.64999997,16 Z M24,11 C38,11 46,24 46,24 C43.9145224,27.091274 41.3093467,29.79795 38.3,32 L36.3,30 C38.6422815,28.3743819 40.6743819,26.3422815 42.3,24 C42.3,24 36,14 24,14 C22.874287,14.0026928 21.7506316,14.0963308 20.64,14.28 L18.15,11.79 C20.056329,11.2683619 22.0235918,11.0026974 24,11 Z M16.14,22.5 L19.31,25.67 C19.8148034,27.0716545 20.9183455,28.1751966 22.32,28.68 L25.49,31.85 C22.8899581,32.342874 20.2144179,31.5180793 18.3431693,29.6468307 C16.4719207,27.7755821 15.647126,25.1000419 16.14,22.5 Z M22.5,16.14 C25.1000419,15.647126 27.7755821,16.4719207 29.6468307,18.3431693 C31.5180793,20.2144179 32.342874,22.8899581 31.85,25.49 L28.69,22.33 C28.1859049,20.9164581 27.0735419,19.8040951 25.66,19.3 Z" id="Stroke-Icon" fill="#000000"></path>
        </g>
    </g>
</svg>