<?xml version="1.0" encoding="UTF-8"?>
<svg viewBox="0 0 48 48" version="1.1" xmlns="http://www.w3.org/2000/svg" xmlns:xlink="http://www.w3.org/1999/xlink">
    <title>2tone / view_2t_48</title>
    <g id="2tone-/-view" stroke="none" stroke-width="1" fill="none" fill-rule="evenodd">
        <g id="view">
            <rect id="Bounding-Box" x="0" y="0" width="48" height="48"></rect>
            <g id="Fill" opacity="0.2" transform="translate(2, 11)" fill="#000000">
                <path d="M22,-3.97903932e-13 C34.6,-3.97903932e-13 42.34,10.53 43.762,12.636 L43.8557558,12.7763073 C43.9516049,12.921358 44,13 44,13 C44,13 36,26 22,26 C8,26 -2.84217094e-14,13 -2.84217094e-14,13 C-2.84217094e-14,13 0.0483950617,12.921358 0.14424417,12.7763073 L0.238,12.636 C1.66,10.53 9.4,-3.97903932e-13 22,-3.97903932e-13 Z M22,5.00000001 C17.581722,5.00000001 14,8.58172202 14,13 C14,17.418278 17.581722,21 22,21 C24.121732,21 26.1565633,20.1571453 27.6568543,18.6568543 C29.1571453,17.1565633 30,15.121732 30,13 C30,8.58172202 26.4182781,5.00000001 22,5.00000001 Z M22,8.00000003 C24.7614238,8.00000003 27,10.2385763 27,13 C27,15.7614238 24.7614238,18 22,18 C19.2385763,18 17,15.7614238 17,13 C17,10.2385763 19.2385763,8.00000003 22,8.00000003 Z" id="Fill-Icon"></path>
            </g>
            <path d="M24,11 C38,11 46,24 46,24 C46,24 38,37 24,37 C9.99999995,37 1.99999995,24 1.99999995,24 C1.99999995,24 2.04839502,23.921358 2.14424412,23.7763072 L2.23799995,23.636 C3.65999995,21.53 11.4,11 24,11 Z M24,14 C12,14 5.69999996,24 5.69999996,24 C5.69999996,24 12,34 24,34 C36,34 42.3,24 42.3,24 C42.3,24 36,14 24,14 Z M24,16 C26.1217319,16 28.1565632,16.8428547 29.6568543,18.3431457 C31.1571453,19.8434368 32,21.8782681 32,24 C32,28.418278 28.418278,32 24,32 C19.581722,32 16,28.418278 16,24 C16,19.581722 19.581722,16 24,16 Z M24,19 C21.2385762,19 19,21.2385762 19,24 C19,26.7614238 21.2385762,29 24,29 C26.7614238,29 29,26.7614238 29,24 C29,21.2385762 26.7614238,19 24,19 Z" id="Stroke-Icon" fill="#000000"></path>
        </g>
    </g>
</svg>