<?xml version="1.0" encoding="utf-8"?>
<svg version="1.1" xmlns:xlink="http://www.w3.org/1999/xlink" width="11px" height="6px" xmlns="http://www.w3.org/2000/svg">
  <g transform="matrix(1 0 0 1 -204 -65 )">
    <path d="M 10.394555416666673 0.665402298  L 9.043729933333335 0.665402298  L 7.864144933333331 5.0329885  L 7.784820266666668 5.0329885  L 6.605025350000005 0.665402298  L 5.254200049999993 0.665402298  L 5.254200049999993 5.83666666  L 6.014708150000007 5.83666666  L 6.014708150000007 1.47  L 6.093612983333327 1.47  L 7.286838533333331 5.83666666  L 8.362126666666668 5.83666666  L 9.555352216666673 1.47  L 9.634466783333327 1.47  L 9.634466783333327 5.83666666  L 10.394555416666673 5.83666666  L 10.394555416666673 0.665402298  Z M 4.493691766666656 0.665402298  L 1.2680374666666743 0.665402298  L 1.2680374666666743 1.47  L 2.487284983333346 1.47  L 2.487284983333346 5.83666666  L 3.2742345166666738 5.83666666  L 3.2742345166666738 1.47  L 4.493691766666656 1.47  L 4.493691766666656 0.665402298  Z " fill-rule="nonzero" fill="#231f20" stroke="none" transform="matrix(1 0 0 1 204 65 )" />
  </g>
</svg>