<?xml version="1.0" encoding="UTF-8"?>
<svg width="384px" height="384px" viewBox="0 0 384 384" version="1.1" xmlns="http://www.w3.org/2000/svg" xmlns:xlink="http://www.w3.org/1999/xlink">
    <title>Ghost / Ghost / unauthorized</title>
    <g id="Ghost-/-Ghost-/-unauthorized" stroke="none" stroke-width="1" fill="none" fill-rule="evenodd">
        <rect id="Bounding-Box" x="0" y="0" width="384" height="384"></rect>
        <g id="Lock" transform="translate(165.142, 178.369) rotate(-10) translate(-165.142, -178.369)translate(59.7113, 47.083)">
            <path d="M167.192359,85.5708833 L167.418039,61.8137389 C167.418039,27.6749536 139.743086,-2.37917128e-15 105.604301,-2.37917128e-15 C71.4655153,-2.37917128e-15 43.7905617,27.6749536 43.7905617,61.8137389 L43.871916,85.5572984 M62.5388815,85.5555064 L62.3346834,61.8137389 C62.3346834,37.9165895 81.7071512,18.5441226 105.604301,18.5441226 C129.50145,18.5441226 148.873917,37.9165895 148.873918,61.8137389 L149.166255,85.5692348" id="Combined-Shape" fill="#757682" opacity="0.3"></path>
            <path d="M0.694592711,104.098548 L0.694592711,240.088774 C0.694592711,250.330409 8.99707878,258.632895 19.2387144,258.632895 L192.317183,258.632895 C200.757361,258.632895 207.880568,252.994277 210.125316,245.278531 C209.489318,254.826158 201.627681,262.396343 191.96054,262.569108 L191.622591,262.572126 L18.5441217,262.572126 C8.41503152,262.572126 0.18270639,254.45111 0.00299933962,244.36493 L-1.06900629e-13,244.028005 L-1.06900629e-13,108.037779 C-1.06900629e-13,106.234853 0.257291636,104.49202 0.737160389,102.843995 C0.708669058,103.258423 0.694592711,103.676842 0.694592711,104.098548 Z" id="Shadow" fill="#000000" opacity="0.1"></path>
            <path d="M192.317183,85.5544265 C202.558819,85.5544265 210.861304,93.8569128 210.861304,104.098548 L210.861304,240.088774 C210.861304,250.330409 202.558819,258.632895 192.317183,258.632895 L19.2387144,258.632895 C8.99707878,258.632895 0.694592711,250.330409 0.694592711,240.088774 L0.694592711,104.098548 C0.694592711,93.8569128 8.99707878,85.5544265 19.2387144,85.5544265 Z M115.050009,153.549539 L96.5058878,153.549539 L96.5058878,190.637783 L115.050009,190.637783 L115.050009,153.549539 Z" id="Combined-Shape" fill="#C3C3CC" opacity="0.4"></path>
            <path d="M192.317183,85.5544265 C202.446273,85.5544265 210.678598,93.6754431 210.858305,103.761623 L210.861304,104.098548 L210.861304,240.088774 C210.861304,241.890234 210.604431,243.631699 210.125315,245.278537 C210.15272,244.865617 210.166712,244.448445 210.166712,244.028005 L210.166712,108.037779 C210.166712,97.7961438 201.864226,89.4936575 191.622591,89.4936575 L18.5441217,89.4936575 C10.1039464,89.4936575 2.98074025,95.1322727 0.735989943,102.848016 C1.37198675,93.3003948 9.23362351,85.73021 18.9007647,85.5574441 L19.2387144,85.5544265 L192.317183,85.5544265 Z" id="Highlight" fill="#FFFFFF" opacity="0.3"></path>
            <polygon id="Fill-Icon" fill="#757682" opacity="0.3" points="115.050009 190.637783 96.5058878 190.637783 96.5058878 153.549539 115.050009 153.549539"></polygon>
        </g>
        <g id="Key" transform="translate(203.8256, 179.3861)">
            <path d="M82.7455119,4.99014359 C100.974068,1.27712221 119.754331,8.17629078 131.338251,22.8413056 C142.922172,37.5063203 145.34647,57.4517056 137.610968,74.4487275 C129.875467,91.4457493 113.291205,102.613696 94.7002399,103.345082 L85.6194109,108.431464 L78.0275036,119.757712 L66.5888492,121.077774 L69.5068303,136.089485 L54.5820201,138.990574 L54.3314644,155.109462 L48.3280498,164.065862 L11.1828537,174.689609 L7.41243927,136.294787 L44.7038004,80.6603889 L45.6325638,70.040871 C40.7894238,56.4357365 42.1119905,41.3934089 49.2516191,28.879231 C56.3912476,16.3650532 68.6314332,7.6348986 82.7455119,4.99014359 Z M109.425973,42.6459882 C108.217305,36.4279338 102.225938,32.3613511 96.0438792,33.5630216 C89.8618204,34.7646921 85.83009,40.7795676 87.0387573,46.997622 C88.2474247,53.2156764 94.238792,57.2822591 100.420851,56.0805886 C106.60291,54.8789181 110.63464,48.8640426 109.425973,42.6459882 Z" id="Shadow" fill="#000000" opacity="0.1"></path>
            <path d="M82.7455119,0.990143592 C100.974068,-2.72287779 119.754331,4.17629078 131.338251,18.8413056 C142.922172,33.5063203 145.34647,53.4517056 137.610968,70.4487275 C129.875467,87.4457493 113.291205,98.6136957 94.7002399,99.3450817 L85.6194109,104.431464 L78.0275036,115.757712 L66.5888492,117.077774 L69.5068303,132.089485 L54.5820201,134.990574 L54.3314644,151.109462 L48.3280498,160.065862 L11.1828537,170.689609 L7.41243927,132.294787 L44.7038004,76.6603889 L45.6325638,66.040871 C40.7894238,52.4357365 42.1119905,37.3934089 49.2516191,24.879231 C56.3912476,12.3650532 68.6314332,3.6348986 82.7455119,0.990143592 Z M109.425973,38.6459882 C108.217305,32.4279338 102.225938,28.3613511 96.0438792,29.5630216 C89.8618204,30.7646921 85.83009,36.7795676 87.0387573,42.997622 C88.2474247,49.2156764 94.238792,53.2822591 100.420851,52.0805886 C106.60291,50.8789181 110.63464,44.8640426 109.425973,38.6459882 Z" id="theme-100" fill="#C4CFCC"></path>
            <path d="M37.2363254,85.2312554 L37.2360979,182.580255 L23.7690979,166.305255 L23.7690979,85.2312554 L37.2363254,85.2312554 Z M62.0320979,86.1272554 L62.0128537,86.1664776 L62.0524347,99.8017031 L53.3075297,107.292499 L64.1210881,118.106057 L53.3701282,128.857017 L62.1759757,142.360289 L62.2072749,153.142548 L53.1870979,163.877255 L53.1876599,86.1272554 L62.0320979,86.1272554 Z" id="theme-200" fill="#738983" transform="translate(43.9451, 133.9058) rotate(34) translate(-43.9451, -133.9058)"></path>
            <path d="M45.6325638,70.040871 L44.7038004,80.6603889 L7.75543927,135.783 L7.41243927,132.294787 L44.7038004,76.6603889 L45.3527401,69.2328779 C45.44361,69.5027494 45.5368837,69.7720907 45.6325638,70.040871 Z M67.3484393,120.989 L69.5068303,132.089485 L68.7574393,132.235 L66.5888492,121.077774 L67.3484393,120.989 Z M82.7455119,0.990143592 C100.974068,-2.72287779 119.754331,4.17629078 131.338251,18.8413056 C138.854121,28.3562485 142.514098,40.0940498 142.045003,51.8071866 C141.630424,41.4492727 137.998148,31.2726028 131.338251,22.8413056 C119.754331,8.17629078 100.974068,1.27712221 82.7455119,4.99014359 C68.6314332,7.6348986 56.3912476,16.3650532 49.2516191,28.879231 C45.28514,35.8315849 43.1140673,43.5642394 42.7981834,51.3972562 C42.4278106,42.2158055 44.6108605,33.0134466 49.2516191,24.879231 C56.3912476,12.3650532 68.6314332,3.6348986 82.7455119,0.990143592 Z" id="theme-50" fill="#FFFFFF" opacity="0.3"></path>
        </g>
    </g>
</svg>